<svg width="768" height="928" viewBox="0 0 768 928" fill="none" xmlns="http://www.w3.org/2000/svg">
<rect width="768" height="928" fill="#C0DDFE"/>
<circle cx="127" cy="751" r="50" fill="#A5CBFF"/>
<circle cx="183" cy="751" r="50" fill="#A5CBFF"/>
<circle cx="183" cy="807" r="50" fill="#A5CBFF"/>
<circle cx="127" cy="807" r="50" fill="#A5CBFF"/>
<circle cx="603" cy="103" r="50" fill="#A5CBFF"/>
<circle cx="659" cy="103" r="50" fill="#A5CBFF"/>
<circle cx="659" cy="159" r="50" fill="#A5CBFF"/>
<circle cx="603" cy="159" r="50" fill="#A5CBFF"/>
<circle cx="631" cy="559" r="50" fill="#A5CBFF"/>
<circle cx="687" cy="559" r="50" fill="#A5CBFF"/>
<rect x="634" y="509" width="52" height="156" fill="#A5CBFF"/>
<circle cx="687" cy="615" r="50" fill="#A5CBFF"/>
<circle cx="631" cy="615" r="50" fill="#A5CBFF"/>
<circle cx="99" cy="221" r="50" fill="#A5CBFF"/>
<circle cx="155" cy="221" r="50" fill="#A5CBFF"/>
<rect x="102" y="171" width="52" height="156" fill="#A5CBFF"/>
<circle cx="155" cy="277" r="50" fill="#A5CBFF"/>
<circle cx="99" cy="277" r="50" fill="#A5CBFF"/>
</svg>
