<svg width="45" height="45" viewBox="0 0 45 45" fill="none" xmlns="http://www.w3.org/2000/svg">
<rect width="45" height="45" rx="12" fill="#3288FF"/>
<path d="M22.6318 24.67C21.5518 25.198 20.0638 25.486 18.4078 25.486C16.6558 25.486 15.2398 25.054 14.3998 24.694C13.7758 24.382 12.7918 23.758 12.5758 22.654C12.1918 20.614 12.3358 17.518 12.5518 15.91C12.7438 14.878 13.7998 14.35 14.4958 14.35H22.4398C23.1358 14.35 24.1918 14.878 24.3598 15.886C24.4558 16.51 24.5518 17.23 24.5758 18.07H26.8078C26.7838 17.446 26.7358 16.774 26.6878 16.054C26.6398 15.118 27.2638 14.206 28.4398 14.062C29.6158 13.918 30.5518 14.686 30.6958 15.718C31.0078 18.478 30.9598 21.406 30.6958 24.142C30.5998 25.15 29.6878 25.99 28.5118 25.846C27.3118 25.702 26.6398 24.79 26.6878 23.83C26.7358 23.134 26.7838 22.486 26.8078 21.862H24.4798C24.4558 22.246 24.3838 22.606 24.3358 22.966C24.1918 23.83 23.2078 24.358 22.6318 24.67ZM20.6398 18.358C20.6158 18.214 20.5918 17.902 20.1118 17.902H16.8478C16.3678 17.902 16.3438 18.214 16.3198 18.382C16.2478 19.126 16.1998 20.23 16.3198 21.166C16.3678 21.454 16.5358 21.646 16.8238 21.742C17.2558 21.862 17.7358 21.91 18.5038 21.91C19.3198 21.91 19.8238 21.838 20.2078 21.742C20.4718 21.646 20.5918 21.43 20.6158 21.118C20.7118 20.302 20.7118 19.15 20.6398 18.358ZM30.9358 30.982C30.9358 34.462 27.0478 35.854 22.1518 35.854C17.3518 35.854 13.3678 34.462 13.3678 30.982C13.3678 27.502 17.2798 26.11 22.1518 26.11C26.9998 26.11 30.9358 27.502 30.9358 30.982ZM26.9038 30.982C26.9038 30.046 25.7758 29.566 22.1278 29.566C18.4798 29.566 17.3998 30.046 17.3998 30.982C17.3998 31.942 18.4798 32.398 22.1278 32.398C25.7998 32.398 26.9038 31.918 26.9038 30.982Z" fill="white"/>
<path fill-rule="evenodd" clip-rule="evenodd" d="M34.261 8.20546C34.2651 8.07442 34.2051 7.94958 34.1002 7.871C33.9952 7.79243 33.8585 7.77001 33.734 7.81093L29.5296 9.19237L29.1126 6.29183C29.0895 6.13097 28.9717 5.99989 28.8143 5.95969C28.6568 5.9195 28.4906 5.97812 28.3932 6.10821L25.263 10.2896C25.0076 10.6308 24.8982 11.0595 24.9588 11.4814C25.0195 11.9033 25.2452 12.2838 25.5864 12.5393L32.0193 17.355C32.3605 17.6104 32.7892 17.7199 33.2111 17.6592C33.6331 17.5985 34.0136 17.3728 34.269 17.0316L37.3992 12.8502C37.4966 12.7201 37.5061 12.5442 37.4231 12.4044C37.3402 12.2647 37.1812 12.1886 37.0204 12.2117L34.1199 12.6288L34.261 8.20546Z" fill="#FDBD00"/>
</svg>
