<svg width="11" height="11" viewBox="0 0 11 11" fill="none" xmlns="http://www.w3.org/2000/svg">
<path d="M2.88021 0C1.29839 0 0.015625 1.36828 0.015625 3.05556V7.94444C0.015625 9.63172 1.29839 11 2.88021 11H7.46354C9.04536 11 10.3281 9.63172 10.3281 7.94444V3.05556C10.3281 1.36828 9.04536 0 7.46354 0H2.88021ZM8.60938 1.22222C8.92562 1.22222 9.18229 1.496 9.18229 1.83333C9.18229 2.17067 8.92562 2.44444 8.60938 2.44444C8.29313 2.44444 8.03646 2.17067 8.03646 1.83333C8.03646 1.496 8.29313 1.22222 8.60938 1.22222ZM5.17188 2.44444C6.7537 2.44444 8.03646 3.81272 8.03646 5.5C8.03646 7.18728 6.7537 8.55556 5.17188 8.55556C3.59005 8.55556 2.30729 7.18728 2.30729 5.5C2.30729 3.81272 3.59005 2.44444 5.17188 2.44444ZM5.17188 3.66667C4.71603 3.66667 4.27886 3.85982 3.95654 4.20364C3.63421 4.54745 3.45312 5.01377 3.45312 5.5C3.45312 5.98623 3.63421 6.45255 3.95654 6.79636C4.27886 7.14018 4.71603 7.33333 5.17188 7.33333C5.62772 7.33333 6.06489 7.14018 6.38722 6.79636C6.70954 6.45255 6.89062 5.98623 6.89062 5.5C6.89062 5.01377 6.70954 4.54745 6.38722 4.20364C6.06489 3.85982 5.62772 3.66667 5.17188 3.66667Z" fill="#8A8A8A"/>
</svg>
