<svg width="113" height="273" viewBox="0 0 113 273" fill="none" xmlns="http://www.w3.org/2000/svg">
<rect x="0.15" y="0.15" width="112.7" height="272.7" fill="white" stroke="black" stroke-width="0.3"/>
<path d="M46.8468 7.384C46.5348 7.536 46.1188 7.616 45.6068 7.616C45.0628 7.616 44.6628 7.496 44.4068 7.384C44.2228 7.296 44.0388 7.176 43.9908 6.944C43.8708 6.304 43.9188 5.248 43.9908 4.728C44.0308 4.504 44.2068 4.336 44.4148 4.336H46.8228C47.0308 4.336 47.2068 4.504 47.2468 4.728C47.3348 5.272 47.3748 6.224 47.2548 6.944C47.2148 7.184 47.0308 7.28 46.8468 7.384ZM46.5188 4.928H44.7108C44.6148 4.928 44.5988 5.008 44.5908 5.064C44.5508 5.472 44.4948 6.088 44.5908 6.664C44.5988 6.728 44.6148 6.792 44.6708 6.824C44.9188 6.944 45.1748 7.016 45.6388 7.016C46.1428 7.016 46.3988 6.92 46.5588 6.84C46.6388 6.792 46.6548 6.704 46.6628 6.632C46.7348 6.128 46.7188 5.496 46.6548 5.072C46.6468 5.008 46.6308 4.928 46.5188 4.928ZM49.3508 4.496C49.4548 5.392 49.4308 6.6 49.3508 7.48C49.3428 7.64 49.1508 7.752 48.9908 7.736C48.8228 7.728 48.6948 7.592 48.7028 7.424C48.7348 6.992 48.7508 6.576 48.7588 6.168H47.9348C47.8068 6.168 47.6708 6.016 47.6708 5.872C47.6708 5.728 47.7988 5.576 47.9348 5.576H48.7508C48.7428 5.248 48.7268 4.904 48.7028 4.552C48.6948 4.384 48.8148 4.264 48.9828 4.24C49.1508 4.224 49.3268 4.32 49.3508 4.496ZM49.4708 9.408C49.4708 10.384 48.3188 10.832 46.8868 10.832C45.4548 10.832 44.3028 10.384 44.3028 9.408C44.3028 8.432 45.4548 7.984 46.8868 7.984C48.3188 7.984 49.4708 8.432 49.4708 9.408ZM48.8148 9.416C48.8148 8.84 48.0308 8.584 46.8788 8.584C45.7348 8.584 44.9588 8.84 44.9588 9.416C44.9588 9.984 45.7348 10.232 46.8788 10.232C48.0308 10.232 48.8148 9.984 48.8148 9.416ZM50.4853 7.576C50.3253 7.656 50.1253 7.584 50.0533 7.456C49.9733 7.32 50.0213 7.104 50.1493 7.032C50.9813 6.536 51.4133 5.968 51.4133 4.888V4.48C51.4133 4.368 51.5413 4.216 51.7253 4.216C51.9013 4.216 52.0693 4.344 52.0693 4.48V4.888C52.0693 6.168 51.4053 7.096 50.4853 7.576ZM52.5573 6.176L53.4533 7.032C53.5733 7.16 53.5173 7.376 53.4293 7.472C53.3093 7.592 53.0933 7.6 52.9733 7.472L52.0933 6.608C51.9973 6.504 51.9893 6.344 52.1093 6.2C52.2133 6.088 52.4373 6.056 52.5573 6.176ZM55.8293 4.496C55.9333 5.392 55.9093 6.6 55.8293 7.48C55.8213 7.64 55.6293 7.752 55.4693 7.736C55.3013 7.728 55.1733 7.592 55.1813 7.424C55.2133 7.048 55.2293 6.688 55.2373 6.328H54.4613C54.4533 6.72 54.4293 7.104 54.3973 7.44C54.3893 7.6 54.1973 7.712 54.0373 7.696C53.8693 7.688 53.7413 7.552 53.7493 7.384C53.8293 6.4 53.8212 5.592 53.7493 4.592C53.7413 4.424 53.8613 4.304 54.0293 4.28C54.1973 4.264 54.3733 4.36 54.3973 4.536C54.4373 4.912 54.4613 5.32 54.4613 5.736H55.2373C55.2293 5.352 55.2133 4.96 55.1813 4.552C55.1733 4.384 55.2933 4.264 55.4613 4.24C55.6293 4.224 55.8053 4.32 55.8293 4.496ZM55.9253 9.408C55.9253 10.384 54.7733 10.832 53.3413 10.832C51.9093 10.832 50.7573 10.384 50.7573 9.408C50.7573 8.432 51.9093 7.984 53.3413 7.984C54.7733 7.984 55.9253 8.432 55.9253 9.408ZM55.2693 9.416C55.2693 8.84 54.4852 8.584 53.3333 8.584C52.1893 8.584 51.4133 8.84 51.4133 9.416C51.4133 9.984 52.1893 10.232 53.3333 10.232C54.4852 10.232 55.2693 9.984 55.2693 9.416ZM57.748 4.928C57.7 5.448 57.604 8.048 57.7 8.856C57.716 8.952 57.732 9.016 57.796 9.056C58.028 9.184 58.332 9.24 58.636 9.24C59.164 9.24 59.564 9.12 59.772 9.024C59.884 8.976 60.124 9.04 60.172 9.232C60.212 9.392 60.092 9.528 59.98 9.576C59.62 9.752 59.132 9.832 58.588 9.832C58.124 9.832 57.772 9.728 57.516 9.608C57.34 9.512 57.156 9.408 57.108 9.168C56.988 8.528 57.044 5.448 57.124 4.872C57.148 4.728 57.3 4.616 57.492 4.648C57.7 4.672 57.756 4.832 57.748 4.928ZM60.628 7.312H59.46C59.332 7.312 59.196 7.16 59.196 7.016C59.196 6.872 59.324 6.72 59.46 6.72H60.628C60.62 5.88 60.596 5.096 60.548 4.592C60.524 4.424 60.66 4.304 60.828 4.28C60.996 4.264 61.172 4.36 61.196 4.536C61.348 5.608 61.284 9.272 61.196 10.136C61.172 10.296 60.996 10.408 60.836 10.392C60.668 10.384 60.54 10.248 60.548 10.08C60.604 9.464 60.628 8.384 60.628 7.312ZM62.556 4.496C62.708 5.568 62.644 9.312 62.556 10.176C62.532 10.336 62.356 10.448 62.196 10.432C62.028 10.424 61.9 10.288 61.908 10.12C62.012 8.896 62.028 5.808 61.908 4.552C61.884 4.384 62.02 4.264 62.188 4.24C62.356 4.224 62.532 4.32 62.556 4.496ZM66.2588 4.336C66.7388 4.336 66.9788 4.696 66.9788 5.056C66.9788 6.688 65.5388 7.76 63.8668 7.864C63.7068 7.872 63.5388 7.736 63.5308 7.592C63.5068 7.464 63.6428 7.264 63.8108 7.256C65.1068 7.184 66.2828 6.352 66.3388 5.224C66.3388 5.048 66.3308 4.928 65.9468 4.928H63.8428C63.7228 4.928 63.5868 4.776 63.5868 4.632C63.5868 4.488 63.7148 4.336 63.8508 4.336H66.2588ZM65.5388 6.304H63.8108C63.6828 6.304 63.5468 6.152 63.5468 6.008C63.5468 5.864 63.6748 5.712 63.8108 5.712H65.5308C65.6508 5.712 65.8028 5.84 65.8028 6.008C65.8028 6.152 65.6748 6.304 65.5388 6.304ZM69.1868 4.496C69.2908 5.384 69.2668 7 69.1868 7.88C69.1788 8.04 68.9868 8.152 68.8268 8.136C68.6588 8.128 68.5308 7.992 68.5388 7.824C68.5708 7.376 68.5948 6.856 68.5948 6.328H67.6108C67.4828 6.328 67.3468 6.176 67.3468 6.032C67.3468 5.888 67.4748 5.736 67.6108 5.736H68.5868C68.5788 5.328 68.5628 4.92 68.5388 4.552C68.5308 4.384 68.6508 4.264 68.8188 4.24C68.9868 4.224 69.1628 4.32 69.1868 4.496ZM64.5468 10.744C64.3868 10.776 64.2028 10.72 64.1548 10.544C64.1148 10.4 64.1868 10.2 64.3548 10.152C65.6348 9.792 66.5708 9.096 66.5708 8.312V8.256C66.5708 8.144 66.6988 7.992 66.8828 7.992C67.0588 7.992 67.2268 8.12 67.2268 8.256V8.36C67.2268 9.456 65.8988 10.456 64.5468 10.744ZM67.7148 9.256L69.3548 10.128C69.4828 10.192 69.5628 10.408 69.4668 10.56C69.3628 10.752 69.1228 10.728 69.0028 10.656L67.3708 9.792C67.2508 9.736 67.1708 9.552 67.2587 9.376C67.3548 9.184 67.5948 9.2 67.7148 9.256Z" fill="#3288FF"/>
</svg>
