<svg width="184" height="260" viewBox="0 0 184 260" fill="none" xmlns="http://www.w3.org/2000/svg">
<rect width="184" height="260" fill="#C0DDFE"/>
<path d="M15.3108 17.768C14.6868 18.072 13.8548 18.232 12.8308 18.232C11.7428 18.232 10.9428 17.992 10.4308 17.768C10.0628 17.592 9.69481 17.352 9.59881 16.888C9.35881 15.608 9.45481 13.496 9.59881 12.456C9.67881 12.008 10.0308 11.672 10.4468 11.672H15.2628C15.6788 11.672 16.0308 12.008 16.1108 12.456C16.2868 13.544 16.3668 15.448 16.1268 16.888C16.0468 17.368 15.6788 17.56 15.3108 17.768ZM14.6548 12.856H11.0388C10.8468 12.856 10.8148 13.016 10.7988 13.128C10.7188 13.944 10.6068 15.176 10.7988 16.328C10.8148 16.456 10.8468 16.584 10.9588 16.648C11.4548 16.888 11.9668 17.032 12.8948 17.032C13.9028 17.032 14.4148 16.84 14.7348 16.68C14.8948 16.584 14.9268 16.408 14.9428 16.264C15.0868 15.256 15.0548 13.992 14.9268 13.144C14.9108 13.016 14.8788 12.856 14.6548 12.856ZM20.3188 11.992C20.5268 13.784 20.4788 16.2 20.3188 17.96C20.3028 18.28 19.9188 18.504 19.5988 18.472C19.2628 18.456 19.0068 18.184 19.0228 17.848C19.0868 16.984 19.1188 16.152 19.1348 15.336H17.4868C17.2308 15.336 16.9588 15.032 16.9588 14.744C16.9588 14.456 17.2148 14.152 17.4868 14.152H19.1188C19.1028 13.496 19.0708 12.808 19.0228 12.104C19.0068 11.768 19.2468 11.528 19.5828 11.48C19.9188 11.448 20.2708 11.64 20.3188 11.992ZM20.5588 21.816C20.5588 23.768 18.2548 24.664 15.3908 24.664C12.5268 24.664 10.2228 23.768 10.2228 21.816C10.2228 19.864 12.5268 18.968 15.3908 18.968C18.2548 18.968 20.5588 19.864 20.5588 21.816ZM19.2468 21.832C19.2468 20.68 17.6788 20.168 15.3748 20.168C13.0868 20.168 11.5348 20.68 11.5348 21.832C11.5348 22.968 13.0868 23.464 15.3748 23.464C17.6788 23.464 19.2468 22.968 19.2468 21.832ZM22.5877 18.152C22.2677 18.312 21.8677 18.168 21.7237 17.912C21.5637 17.64 21.6597 17.208 21.9157 17.064C23.5797 16.072 24.4437 14.936 24.4437 12.776V11.96C24.4437 11.736 24.6997 11.432 25.0677 11.432C25.4197 11.432 25.7557 11.688 25.7557 11.96V12.776C25.7557 15.336 24.4277 17.192 22.5877 18.152ZM26.7317 15.352L28.5237 17.064C28.7637 17.32 28.6517 17.752 28.4757 17.944C28.2357 18.184 27.8037 18.2 27.5637 17.944L25.8037 16.216C25.6117 16.008 25.5957 15.688 25.8357 15.4C26.0437 15.176 26.4917 15.112 26.7317 15.352ZM33.2757 11.992C33.4837 13.784 33.4357 16.2 33.2757 17.96C33.2597 18.28 32.8757 18.504 32.5557 18.472C32.2197 18.456 31.9637 18.184 31.9797 17.848C32.0437 17.096 32.0757 16.376 32.0917 15.656H30.5397C30.5237 16.44 30.4757 17.208 30.4117 17.88C30.3957 18.2 30.0117 18.424 29.6917 18.392C29.3557 18.376 29.0997 18.104 29.1157 17.768C29.2757 15.8 29.2597 14.184 29.1157 12.184C29.0997 11.848 29.3397 11.608 29.6757 11.56C30.0117 11.528 30.3637 11.72 30.4117 12.072C30.4917 12.824 30.5397 13.64 30.5397 14.472H32.0917C32.0757 13.704 32.0437 12.92 31.9797 12.104C31.9637 11.768 32.2037 11.528 32.5397 11.48C32.8757 11.448 33.2277 11.64 33.2757 11.992ZM33.4677 21.816C33.4677 23.768 31.1637 24.664 28.2997 24.664C25.4357 24.664 23.1317 23.768 23.1317 21.816C23.1317 19.864 25.4357 18.968 28.2997 18.968C31.1637 18.968 33.4677 19.864 33.4677 21.816ZM32.1557 21.832C32.1557 20.68 30.5877 20.168 28.2837 20.168C25.9957 20.168 24.4437 20.68 24.4437 21.832C24.4437 22.968 25.9957 23.464 28.2837 23.464C30.5877 23.464 32.1557 22.968 32.1557 21.832ZM10.8788 28.856C10.7828 29.896 10.5908 35.096 10.7828 36.712C10.8148 36.904 10.8468 37.032 10.9748 37.112C11.4388 37.368 12.0468 37.48 12.6548 37.48C13.7108 37.48 14.5108 37.24 14.9268 37.048C15.1508 36.952 15.6308 37.08 15.7268 37.464C15.8068 37.784 15.5668 38.056 15.3428 38.152C14.6228 38.504 13.6468 38.664 12.5588 38.664C11.6308 38.664 10.9268 38.456 10.4148 38.216C10.0628 38.024 9.69481 37.816 9.59881 37.336C9.35881 36.056 9.47081 29.896 9.63081 28.744C9.67881 28.456 9.98281 28.232 10.3668 28.296C10.7828 28.344 10.8948 28.664 10.8788 28.856ZM16.6388 33.624H14.3028C14.0468 33.624 13.7748 33.32 13.7748 33.032C13.7748 32.744 14.0308 32.44 14.3028 32.44H16.6388C16.6228 30.76 16.5748 29.192 16.4788 28.184C16.4308 27.848 16.7028 27.608 17.0388 27.56C17.3748 27.528 17.7268 27.72 17.7748 28.072C18.0788 30.216 17.9508 37.544 17.7748 39.272C17.7268 39.592 17.3748 39.816 17.0548 39.784C16.7188 39.768 16.4628 39.496 16.4788 39.16C16.5908 37.928 16.6388 35.768 16.6388 33.624ZM20.4948 27.992C20.7988 30.136 20.6708 37.624 20.4948 39.352C20.4468 39.672 20.0948 39.896 19.7748 39.864C19.4388 39.848 19.1828 39.576 19.1988 39.24C19.4068 36.792 19.4388 30.616 19.1988 28.104C19.1508 27.768 19.4228 27.528 19.7588 27.48C20.0948 27.448 20.4468 27.64 20.4948 27.992ZM27.9003 27.672C28.8603 27.672 29.3403 28.392 29.3403 29.112C29.3403 32.376 26.4603 34.52 23.1163 34.728C22.7963 34.744 22.4603 34.472 22.4443 34.184C22.3963 33.928 22.6683 33.528 23.0043 33.512C25.5963 33.368 27.9483 31.704 28.0603 29.448C28.0603 29.096 28.0443 28.856 27.2763 28.856H23.0683C22.8283 28.856 22.5563 28.552 22.5563 28.264C22.5563 27.976 22.8123 27.672 23.0843 27.672H27.9003ZM26.4603 31.608H23.0043C22.7483 31.608 22.4763 31.304 22.4763 31.016C22.4763 30.728 22.7323 30.424 23.0043 30.424H26.4443C26.6843 30.424 26.9883 30.68 26.9883 31.016C26.9883 31.304 26.7323 31.608 26.4603 31.608ZM33.7563 27.992C33.9643 29.768 33.9163 33 33.7563 34.76C33.7403 35.08 33.3563 35.304 33.0363 35.272C32.7003 35.256 32.4443 34.984 32.4603 34.648C32.5243 33.752 32.5723 32.712 32.5723 31.656H30.6043C30.3483 31.656 30.0763 31.352 30.0763 31.064C30.0763 30.776 30.3323 30.472 30.6043 30.472H32.5563C32.5403 29.656 32.5083 28.84 32.4603 28.104C32.4443 27.768 32.6843 27.528 33.0203 27.48C33.3563 27.448 33.7083 27.64 33.7563 27.992ZM24.4763 40.488C24.1563 40.552 23.7883 40.44 23.6923 40.088C23.6123 39.8 23.7563 39.4 24.0923 39.304C26.6523 38.584 28.5243 37.192 28.5243 35.624V35.512C28.5243 35.288 28.7803 34.984 29.1483 34.984C29.5003 34.984 29.8363 35.24 29.8363 35.512V35.72C29.8363 37.912 27.1803 39.912 24.4763 40.488ZM30.8123 37.512L34.0923 39.256C34.3483 39.384 34.5083 39.816 34.3163 40.12C34.1083 40.504 33.6283 40.456 33.3883 40.312L30.1243 38.584C29.8843 38.472 29.7243 38.104 29.9003 37.752C30.0923 37.368 30.5723 37.4 30.8123 37.512Z" fill="#3288FF"/>
</svg>
