<svg width="113" height="273" viewBox="0 0 113 273" fill="none" xmlns="http://www.w3.org/2000/svg">
<rect width="113" height="273" fill="#C0DDFE"/>
<path d="M47.8468 7.384C47.5348 7.536 47.1188 7.616 46.6068 7.616C46.0628 7.616 45.6628 7.496 45.4068 7.384C45.2228 7.296 45.0388 7.176 44.9908 6.944C44.8708 6.304 44.9188 5.248 44.9908 4.728C45.0308 4.504 45.2068 4.336 45.4148 4.336H47.8228C48.0308 4.336 48.2068 4.504 48.2468 4.728C48.3348 5.272 48.3748 6.224 48.2548 6.944C48.2148 7.184 48.0308 7.28 47.8468 7.384ZM47.5188 4.928H45.7108C45.6148 4.928 45.5988 5.008 45.5908 5.064C45.5508 5.472 45.4948 6.088 45.5908 6.664C45.5988 6.728 45.6148 6.792 45.6708 6.824C45.9188 6.944 46.1748 7.016 46.6388 7.016C47.1428 7.016 47.3988 6.92 47.5588 6.84C47.6388 6.792 47.6548 6.704 47.6628 6.632C47.7348 6.128 47.7188 5.496 47.6548 5.072C47.6468 5.008 47.6308 4.928 47.5188 4.928ZM50.3508 4.496C50.4548 5.392 50.4308 6.6 50.3508 7.48C50.3428 7.64 50.1508 7.752 49.9908 7.736C49.8228 7.728 49.6948 7.592 49.7028 7.424C49.7348 6.992 49.7508 6.576 49.7588 6.168H48.9348C48.8068 6.168 48.6708 6.016 48.6708 5.872C48.6708 5.728 48.7988 5.576 48.9348 5.576H49.7508C49.7428 5.248 49.7268 4.904 49.7028 4.552C49.6948 4.384 49.8148 4.264 49.9828 4.24C50.1508 4.224 50.3268 4.32 50.3508 4.496ZM50.4708 9.408C50.4708 10.384 49.3188 10.832 47.8868 10.832C46.4548 10.832 45.3028 10.384 45.3028 9.408C45.3028 8.432 46.4548 7.984 47.8868 7.984C49.3188 7.984 50.4708 8.432 50.4708 9.408ZM49.8148 9.416C49.8148 8.84 49.0308 8.584 47.8788 8.584C46.7348 8.584 45.9588 8.84 45.9588 9.416C45.9588 9.984 46.7348 10.232 47.8788 10.232C49.0308 10.232 49.8148 9.984 49.8148 9.416ZM51.4853 7.576C51.3253 7.656 51.1253 7.584 51.0533 7.456C50.9733 7.32 51.0213 7.104 51.1493 7.032C51.9813 6.536 52.4133 5.968 52.4133 4.888V4.48C52.4133 4.368 52.5413 4.216 52.7253 4.216C52.9013 4.216 53.0693 4.344 53.0693 4.48V4.888C53.0693 6.168 52.4053 7.096 51.4853 7.576ZM53.5573 6.176L54.4533 7.032C54.5733 7.16 54.5173 7.376 54.4293 7.472C54.3093 7.592 54.0933 7.6 53.9733 7.472L53.0933 6.608C52.9973 6.504 52.9893 6.344 53.1093 6.2C53.2133 6.088 53.4373 6.056 53.5573 6.176ZM56.8293 4.496C56.9333 5.392 56.9093 6.6 56.8293 7.48C56.8213 7.64 56.6293 7.752 56.4693 7.736C56.3013 7.728 56.1733 7.592 56.1813 7.424C56.2133 7.048 56.2293 6.688 56.2373 6.328H55.4613C55.4533 6.72 55.4293 7.104 55.3973 7.44C55.3893 7.6 55.1973 7.712 55.0373 7.696C54.8693 7.688 54.7413 7.552 54.7493 7.384C54.8293 6.4 54.8212 5.592 54.7493 4.592C54.7413 4.424 54.8613 4.304 55.0293 4.28C55.1973 4.264 55.3733 4.36 55.3973 4.536C55.4373 4.912 55.4613 5.32 55.4613 5.736H56.2373C56.2293 5.352 56.2133 4.96 56.1813 4.552C56.1733 4.384 56.2933 4.264 56.4613 4.24C56.6293 4.224 56.8053 4.32 56.8293 4.496ZM56.9253 9.408C56.9253 10.384 55.7733 10.832 54.3413 10.832C52.9093 10.832 51.7573 10.384 51.7573 9.408C51.7573 8.432 52.9093 7.984 54.3413 7.984C55.7733 7.984 56.9253 8.432 56.9253 9.408ZM56.2693 9.416C56.2693 8.84 55.4852 8.584 54.3333 8.584C53.1893 8.584 52.4133 8.84 52.4133 9.416C52.4133 9.984 53.1893 10.232 54.3333 10.232C55.4852 10.232 56.2693 9.984 56.2693 9.416ZM58.748 4.928C58.7 5.448 58.604 8.048 58.7 8.856C58.716 8.952 58.732 9.016 58.796 9.056C59.028 9.184 59.332 9.24 59.636 9.24C60.164 9.24 60.564 9.12 60.772 9.024C60.884 8.976 61.124 9.04 61.172 9.232C61.212 9.392 61.092 9.528 60.98 9.576C60.62 9.752 60.132 9.832 59.588 9.832C59.124 9.832 58.772 9.728 58.516 9.608C58.34 9.512 58.156 9.408 58.108 9.168C57.988 8.528 58.044 5.448 58.124 4.872C58.148 4.728 58.3 4.616 58.492 4.648C58.7 4.672 58.756 4.832 58.748 4.928ZM61.628 7.312H60.46C60.332 7.312 60.196 7.16 60.196 7.016C60.196 6.872 60.324 6.72 60.46 6.72H61.628C61.62 5.88 61.596 5.096 61.548 4.592C61.524 4.424 61.66 4.304 61.828 4.28C61.996 4.264 62.172 4.36 62.196 4.536C62.348 5.608 62.284 9.272 62.196 10.136C62.172 10.296 61.996 10.408 61.836 10.392C61.668 10.384 61.54 10.248 61.548 10.08C61.604 9.464 61.628 8.384 61.628 7.312ZM63.556 4.496C63.708 5.568 63.644 9.312 63.556 10.176C63.532 10.336 63.356 10.448 63.196 10.432C63.028 10.424 62.9 10.288 62.908 10.12C63.012 8.896 63.028 5.808 62.908 4.552C62.884 4.384 63.02 4.264 63.188 4.24C63.356 4.224 63.532 4.32 63.556 4.496ZM67.2588 4.336C67.7388 4.336 67.9788 4.696 67.9788 5.056C67.9788 6.688 66.5388 7.76 64.8668 7.864C64.7068 7.872 64.5388 7.736 64.5308 7.592C64.5068 7.464 64.6428 7.264 64.8108 7.256C66.1068 7.184 67.2828 6.352 67.3388 5.224C67.3388 5.048 67.3308 4.928 66.9468 4.928H64.8428C64.7228 4.928 64.5868 4.776 64.5868 4.632C64.5868 4.488 64.7148 4.336 64.8508 4.336H67.2588ZM66.5388 6.304H64.8108C64.6828 6.304 64.5468 6.152 64.5468 6.008C64.5468 5.864 64.6748 5.712 64.8108 5.712H66.5308C66.6508 5.712 66.8028 5.84 66.8028 6.008C66.8028 6.152 66.6748 6.304 66.5388 6.304ZM70.1868 4.496C70.2908 5.384 70.2668 7 70.1868 7.88C70.1788 8.04 69.9868 8.152 69.8268 8.136C69.6588 8.128 69.5308 7.992 69.5388 7.824C69.5708 7.376 69.5948 6.856 69.5948 6.328H68.6108C68.4828 6.328 68.3468 6.176 68.3468 6.032C68.3468 5.888 68.4748 5.736 68.6108 5.736H69.5868C69.5788 5.328 69.5628 4.92 69.5388 4.552C69.5308 4.384 69.6508 4.264 69.8188 4.24C69.9868 4.224 70.1628 4.32 70.1868 4.496ZM65.5468 10.744C65.3868 10.776 65.2028 10.72 65.1548 10.544C65.1148 10.4 65.1868 10.2 65.3548 10.152C66.6348 9.792 67.5708 9.096 67.5708 8.312V8.256C67.5708 8.144 67.6988 7.992 67.8828 7.992C68.0588 7.992 68.2268 8.12 68.2268 8.256V8.36C68.2268 9.456 66.8988 10.456 65.5468 10.744ZM68.7148 9.256L70.3548 10.128C70.4828 10.192 70.5628 10.408 70.4668 10.56C70.3628 10.752 70.1228 10.728 70.0028 10.656L68.3708 9.792C68.2508 9.736 68.1708 9.552 68.2587 9.376C68.3548 9.184 68.5948 9.2 68.7148 9.256Z" fill="#3288FF"/>
</svg>
