<svg width="184" height="260" viewBox="0 0 184 260" fill="none" xmlns="http://www.w3.org/2000/svg">
<rect width="184" height="260" fill="#C0DDFE"/>
<path d="M79.4335 11.73C79.0435 11.92 78.5235 12.02 77.8835 12.02C77.2035 12.02 76.7035 11.87 76.3835 11.73C76.1535 11.62 75.9235 11.47 75.8635 11.18C75.7135 10.38 75.7735 9.06 75.8635 8.41C75.9135 8.13 76.1335 7.92 76.3935 7.92H79.4035C79.6635 7.92 79.8835 8.13 79.9335 8.41C80.0435 9.09 80.0935 10.28 79.9435 11.18C79.8935 11.48 79.6635 11.6 79.4335 11.73ZM79.0235 8.66H76.7635C76.6435 8.66 76.6235 8.76 76.6135 8.83C76.5635 9.34 76.4935 10.11 76.6135 10.83C76.6235 10.91 76.6435 10.99 76.7135 11.03C77.0235 11.18 77.3435 11.27 77.9235 11.27C78.5535 11.27 78.8735 11.15 79.0735 11.05C79.1735 10.99 79.1935 10.88 79.2035 10.79C79.2935 10.16 79.2735 9.37 79.1935 8.84C79.1835 8.76 79.1635 8.66 79.0235 8.66ZM82.5635 8.12C82.6935 9.24 82.6635 10.75 82.5635 11.85C82.5535 12.05 82.3135 12.19 82.1135 12.17C81.9035 12.16 81.7435 11.99 81.7535 11.78C81.7935 11.24 81.8135 10.72 81.8235 10.21H80.7935C80.6335 10.21 80.4635 10.02 80.4635 9.84C80.4635 9.66 80.6235 9.47 80.7935 9.47H81.8135C81.8035 9.06 81.7835 8.63 81.7535 8.19C81.7435 7.98 81.8935 7.83 82.1035 7.8C82.3135 7.78 82.5335 7.9 82.5635 8.12ZM82.7135 14.26C82.7135 15.48 81.2735 16.04 79.4835 16.04C77.6935 16.04 76.2535 15.48 76.2535 14.26C76.2535 13.04 77.6935 12.48 79.4835 12.48C81.2735 12.48 82.7135 13.04 82.7135 14.26ZM81.8935 14.27C81.8935 13.55 80.9135 13.23 79.4735 13.23C78.0435 13.23 77.0735 13.55 77.0735 14.27C77.0735 14.98 78.0435 15.29 79.4735 15.29C80.9135 15.29 81.8935 14.98 81.8935 14.27ZM83.9816 11.97C83.7816 12.07 83.5316 11.98 83.4416 11.82C83.3416 11.65 83.4016 11.38 83.5616 11.29C84.6016 10.67 85.1416 9.96 85.1416 8.61V8.1C85.1416 7.96 85.3016 7.77 85.5316 7.77C85.7516 7.77 85.9616 7.93 85.9616 8.1V8.61C85.9616 10.21 85.1316 11.37 83.9816 11.97ZM86.5716 10.22L87.6916 11.29C87.8416 11.45 87.7716 11.72 87.6616 11.84C87.5116 11.99 87.2416 12 87.0916 11.84L85.9916 10.76C85.8716 10.63 85.8616 10.43 86.0116 10.25C86.1416 10.11 86.4216 10.07 86.5716 10.22ZM90.6616 8.12C90.7916 9.24 90.7616 10.75 90.6616 11.85C90.6516 12.05 90.4116 12.19 90.2116 12.17C90.0016 12.16 89.8416 11.99 89.8516 11.78C89.8916 11.31 89.9116 10.86 89.9216 10.41H88.9516C88.9416 10.9 88.9116 11.38 88.8716 11.8C88.8616 12 88.6216 12.14 88.4216 12.12C88.2116 12.11 88.0516 11.94 88.0616 11.73C88.1616 10.5 88.1516 9.49 88.0616 8.24C88.0516 8.03 88.2016 7.88 88.4116 7.85C88.6216 7.83 88.8416 7.95 88.8716 8.17C88.9216 8.64 88.9516 9.15 88.9516 9.67H89.9216C89.9116 9.19 89.8916 8.7 89.8516 8.19C89.8416 7.98 89.9916 7.83 90.2016 7.8C90.4116 7.78 90.6316 7.9 90.6616 8.12ZM90.7816 14.26C90.7816 15.48 89.3416 16.04 87.5516 16.04C85.7616 16.04 84.3216 15.48 84.3216 14.26C84.3216 13.04 85.7616 12.48 87.5516 12.48C89.3416 12.48 90.7816 13.04 90.7816 14.26ZM89.9616 14.27C89.9616 13.55 88.9816 13.23 87.5416 13.23C86.1116 13.23 85.1416 13.55 85.1416 14.27C85.1416 14.98 86.1116 15.29 87.5416 15.29C88.9816 15.29 89.9616 14.98 89.9616 14.27ZM93.06 8.66C93 9.31 92.88 12.56 93 13.57C93.02 13.69 93.04 13.77 93.12 13.82C93.41 13.98 93.79 14.05 94.17 14.05C94.83 14.05 95.33 13.9 95.59 13.78C95.73 13.72 96.03 13.8 96.09 14.04C96.14 14.24 95.99 14.41 95.85 14.47C95.4 14.69 94.79 14.79 94.11 14.79C93.53 14.79 93.09 14.66 92.77 14.51C92.55 14.39 92.32 14.26 92.26 13.96C92.11 13.16 92.18 9.31 92.28 8.59C92.31 8.41 92.5 8.27 92.74 8.31C93 8.34 93.07 8.54 93.06 8.66ZM96.66 11.64H95.2C95.04 11.64 94.87 11.45 94.87 11.27C94.87 11.09 95.03 10.9 95.2 10.9H96.66C96.65 9.85 96.62 8.87 96.56 8.24C96.53 8.03 96.7 7.88 96.91 7.85C97.12 7.83 97.34 7.95 97.37 8.17C97.56 9.51 97.48 14.09 97.37 15.17C97.34 15.37 97.12 15.51 96.92 15.49C96.71 15.48 96.55 15.31 96.56 15.1C96.63 14.33 96.66 12.98 96.66 11.64ZM99.07 8.12C99.26 9.46 99.18 14.14 99.07 15.22C99.04 15.42 98.82 15.56 98.62 15.54C98.41 15.53 98.25 15.36 98.26 15.15C98.39 13.62 98.41 9.76 98.26 8.19C98.23 7.98 98.4 7.83 98.61 7.8C98.82 7.78 99.04 7.9 99.07 8.12ZM103.698 7.92C104.298 7.92 104.598 8.37 104.598 8.82C104.598 10.86 102.798 12.2 100.708 12.33C100.508 12.34 100.298 12.17 100.288 11.99C100.258 11.83 100.428 11.58 100.638 11.57C102.258 11.48 103.728 10.44 103.798 9.03C103.798 8.81 103.788 8.66 103.308 8.66H100.678C100.528 8.66 100.358 8.47 100.358 8.29C100.358 8.11 100.518 7.92 100.688 7.92H103.698ZM102.798 10.38H100.638C100.478 10.38 100.308 10.19 100.308 10.01C100.308 9.83 100.468 9.64 100.638 9.64H102.788C102.938 9.64 103.128 9.8 103.128 10.01C103.128 10.19 102.968 10.38 102.798 10.38ZM107.358 8.12C107.488 9.23 107.458 11.25 107.358 12.35C107.348 12.55 107.108 12.69 106.908 12.67C106.698 12.66 106.538 12.49 106.548 12.28C106.588 11.72 106.618 11.07 106.618 10.41H105.388C105.228 10.41 105.058 10.22 105.058 10.04C105.058 9.86 105.218 9.67 105.388 9.67H106.608C106.598 9.16 106.578 8.65 106.548 8.19C106.538 7.98 106.688 7.83 106.898 7.8C107.108 7.78 107.328 7.9 107.358 8.12ZM101.558 15.93C101.358 15.97 101.128 15.9 101.068 15.68C101.018 15.5 101.108 15.25 101.318 15.19C102.918 14.74 104.088 13.87 104.088 12.89V12.82C104.088 12.68 104.248 12.49 104.478 12.49C104.698 12.49 104.908 12.65 104.908 12.82V12.95C104.908 14.32 103.248 15.57 101.558 15.93ZM105.518 14.07L107.568 15.16C107.728 15.24 107.828 15.51 107.708 15.7C107.578 15.94 107.278 15.91 107.128 15.82L105.088 14.74C104.938 14.67 104.838 14.44 104.948 14.22C105.068 13.98 105.368 14 105.518 14.07Z" fill="#3288FF"/>
</svg>
